<svg id="Component_4_7" data-name="Component 4 – 7" xmlns="http://www.w3.org/2000/svg" width="32" height="32" viewBox="0 0 32 32">
  <g id="menu-left" transform="translate(0 5)">
    <path id="Path_5251" data-name="Path 5251" d="M19,9.091A1.591,1.591,0,0,0,17.408,7.5H4.592a1.592,1.592,0,1,0,0,3.184H17.408A1.591,1.591,0,0,0,19,9.091Z" transform="translate(13 -7.5)" fill="#fff"/>
    <path id="Path_5252" data-name="Path 5252" d="M35,18.1a1.591,1.591,0,0,0-1.591-1.591H4.592a1.592,1.592,0,0,0,0,3.184H33.408A1.591,1.591,0,0,0,35,18.1Z" transform="translate(-3 -6.899)" fill="#fff"/>
    <path id="Path_5253" data-name="Path 5253" d="M23.808,25.515a1.592,1.592,0,1,1,0,3.184H4.592a1.592,1.592,0,0,1,0-3.184Z" transform="translate(6.6 -6.299)" fill="#fff"/>
  </g>
  <rect id="Rectangle_1415" data-name="Rectangle 1415" width="32" height="32" transform="translate(0)" fill="#fff" opacity="0"/>
</svg>
