<svg id="Component_6_2" data-name="Component 6 – 2" xmlns="http://www.w3.org/2000/svg" width="40" height="40" viewBox="0 0 40 40">
  <path id="Icon_awesome-user" data-name="Icon awesome-user" d="M17.4,19.883A9.942,9.942,0,1,0,7.456,9.942,9.941,9.941,0,0,0,17.4,19.883Zm6.959,2.485h-1.3a13.52,13.52,0,0,1-11.324,0h-1.3A10.441,10.441,0,0,0,0,32.807v3.231a3.729,3.729,0,0,0,3.728,3.728H31.067A3.729,3.729,0,0,0,34.8,36.038V32.807A10.441,10.441,0,0,0,24.357,22.369Z" transform="translate(3)" fill="#fff"/>
  <rect id="Rectangle_1416" data-name="Rectangle 1416" width="40" height="40" fill="#fff" opacity="0"/>
</svg>
