<svg xmlns="http://www.w3.org/2000/svg" width="123" height="75.81" viewBox="0 0 123 75.81">
  <g id="Layer_4" transform="translate(-59.29 -76.45)">
    <g id="Group_4" data-name="Group 4" transform="translate(59.29 76.45)">
      <g id="Group_3" data-name="Group 3">
        <path id="Path_7" data-name="Path 7" d="M220.172,118.151h15.418v-7.9H195.66v7.9h15.815v41.086h8.7Z" transform="translate(-162.679 -102.075)" fill="#f2674f"/>
        <path id="Path_8" data-name="Path 8" d="M261.05,281.315v6.716h8.7v-6.322A7.6,7.6,0,0,0,265,280.13,6.67,6.67,0,0,0,261.05,281.315Z" transform="translate(-212.254 -230.87)" fill="rgba(242,103,79,0.9)"/>
        <path id="Path_9" data-name="Path 9" d="M261.05,234.289v9.877a7.18,7.18,0,0,0,6.327,3.161c.791,0,1.582-.394,2.373-.394V231.524c-.791,0-1.582-.394-2.373-.394A7.173,7.173,0,0,0,261.05,234.289Z" transform="translate(-212.254 -193.721)" fill="rgba(240,80,75,0.9)"/>
        <path id="Path_10" data-name="Path 10" d="M273.462,199.553v-15.8a8.118,8.118,0,0,0-7.512,7.9A7.845,7.845,0,0,0,273.462,199.553Z" transform="translate(-215.969 -157.799)" fill="rgba(252,180,46,0.9)"/>
        <path id="Path_11" data-name="Path 11" d="M310.484,118.151h11.86v-7.9H312.066a8.564,8.564,0,0,0-1.976,5.531C310.09,116.57,310.484,117.36,310.484,118.151Z" transform="translate(-249.434 -102.075)" fill="rgba(0,152,213,0.9)"/>
        <path id="Path_12" data-name="Path 12" d="M295.29,110.25H280.66c.791,3.555,3.558,6.322,7.118,6.322A7.979,7.979,0,0,0,295.29,110.25Z" transform="translate(-227.122 -102.075)" fill="rgba(0,182,235,0.9)"/>
        <path id="Path_13" data-name="Path 13" d="M211.078,110.25H195.66v7.9h11.466A11.758,11.758,0,0,0,211.078,110.25Z" transform="translate(-162.679 -102.075)" fill="rgba(135,59,130,0.9)"/>
        <path id="Path_14" data-name="Path 14" d="M238.754,118.151H243.1a11.194,11.194,0,0,0-4.745-7.9H224.915a11.21,11.21,0,0,0-4.745,7.9h9.884v13.036h1.582a11.057,11.057,0,0,0,7.118-2.37V118.151Z" transform="translate(-181.261 -102.075)" fill="rgba(169,47,134,0.75)"/>
        <path id="Path_15" data-name="Path 15" d="M273.462,191.257V183.75a8.118,8.118,0,0,0-7.512,7.9,11.488,11.488,0,0,0,.791,3.555A8.155,8.155,0,0,0,273.462,191.257Z" transform="translate(-215.969 -157.799)" fill="rgba(242,103,79,0.9)"/>
        <path id="Path_16" data-name="Path 16" d="M397.081,185.347l-10.656-15.469c5.328-1.6,9.589-5.867,9.589-12.267,0-8-5.86-12.8-15.452-12.8H362.98v40.537h6.927v-14.4h9.057l9.589,14.4Zm-8.523-27.2c0,3.734-3.2,6.4-8.525,6.4H369.909V151.212h10.124C385.361,151.212,388.558,153.345,388.558,158.146Z" transform="translate(-289.532 -128.277)" fill="rgba(73,91,105,0.9)"/>
        <path id="Path_17" data-name="Path 17" d="M362.99,273.8v8.535h6.927v-8a6.051,6.051,0,0,0-4.261-1.6A4.062,4.062,0,0,0,362.99,273.8Z" transform="translate(-289.54 -225.26)" fill="rgba(109,60,140,0.9)"/>
        <path id="Path_18" data-name="Path 18" d="M475.587,292.359l-4.261-6.4a7.687,7.687,0,0,0-4.8,5.867l.532.535h8.525Z" transform="translate(-368.039 -235.29)" fill="rgba(32,180,97,0.85)"/>
        <path id="Path_19" data-name="Path 19" d="M449.612,264.224l-5.328-6.934h-1.6a5.788,5.788,0,0,0-4.8,2.133l7.459,10.668A8.251,8.251,0,0,0,449.612,264.224Z" transform="translate(-346.325 -213.554)" fill="rgba(250,169,78,0.9)"/>
        <path id="Path_20" data-name="Path 20" d="M449.219,215.419l-2.665-3.734c4.8-1.067,7.993-4.266,9.057-9.6a8.139,8.139,0,0,0-5.328-2.133h-1.6c0,3.734-2.665,5.867-6.395,6.4v1.6C442.292,211.685,445.49,214.884,449.219,215.419Z" transform="translate(-349.661 -170.081)" fill="rgba(252,180,46,0.9)"/>
        <path id="Path_21" data-name="Path 21" d="M419.76,208.77c.532.534.532,1.067.532,2.133a8.2,8.2,0,0,1-7.993,8c-3.2,0-6.395-2.668-7.459-5.867h6.927C416.03,213.039,419.228,211.438,419.76,208.77Z" transform="translate(-321.268 -176.768)" fill="rgba(242,103,79,0.9)"/>
        <path id="Path_22" data-name="Path 22" d="M400.44,242.85h6.927l5.86,9.067a6.416,6.416,0,0,0,1.066-4.266c0-4.8-3.2-8-7.459-8C404.169,239.65,401.507,240.717,400.44,242.85Z" transform="translate(-317.933 -200.18)" fill="rgba(240,84,75,0.9)"/>
        <path id="Path_23" data-name="Path 23" d="M377.9,144.82H362.98v9.069a7.137,7.137,0,0,0,6.927,4.266v-6.934h9.057v-1.6A12.67,12.67,0,0,0,377.9,144.82Z" transform="translate(-289.532 -128.285)" fill="rgba(0,152,213,0.85)"/>
        <path id="Path_24" data-name="Path 24" d="M362.99,144.82v17.6h.532a8.816,8.816,0,0,0,6.395-2.668v-8.535h2.131a8.638,8.638,0,0,0-8.525-6.4Z" transform="translate(-289.54 -128.285)" fill="rgba(169,47,134,0.9)"/>
        <path id="Path_25" data-name="Path 25" d="M371.122,174.719l2.131-1.6v-8.535h2.131a2.765,2.765,0,0,0-1.067-2.133h0c-3.729,0-6.927,3.2-6.927,6.4A6.006,6.006,0,0,0,371.122,174.719Z" transform="translate(-292.876 -141.651)" fill="rgba(175,59,144,0.9)"/>
        <path id="Path_26" data-name="Path 26" d="M362.99,197.75v20.8h1.6a15.784,15.784,0,0,0,5.328-1.067v-6.4h4.8a9.886,9.886,0,0,0,0-6.4h-4.8v-5.867c-1.6-1.067-3.2-1.067-5.328-1.067Q363.787,197.749,362.99,197.75Z" transform="translate(-289.54 -168.414)" fill="rgba(135,59,130,0.9)"/>
        <path id="Path_27" data-name="Path 27" d="M374,267.035a10.036,10.036,0,0,0,4.261-1.067V261.7C376.133,262.234,374.534,264.368,374,267.035Z" transform="translate(-297.887 -216.897)" fill="rgba(90,138,196,0.6)"/>
        <path id="Path_28" data-name="Path 28" d="M378.264,282.322v-8l-3.2-1.6a7.6,7.6,0,0,0-1.067,3.2A6.929,6.929,0,0,0,378.264,282.322Z" transform="translate(-297.887 -225.252)" fill="rgba(90,138,196,0.6)"/>
        <path id="Path_29" data-name="Path 29" d="M453.025,235.336l-4.8-6.934a18.054,18.054,0,0,0,7.459-4.8,6.051,6.051,0,0,0-4.261-1.6,7.057,7.057,0,0,0-6.927,6.934c0,3.2,3.2,6.4,6.927,6.4C451.959,235.336,452.493,235.336,453.025,235.336Z" transform="translate(-351.337 -186.799)" fill="rgba(251,177,94,0.65)"/>
        <path id="Path_30" data-name="Path 30" d="M437.815,87.65l3.195,3.2-3.2,3.2,3.2,3.2-4.261,3.734,5.86,6.4-6.394,6.4-5.86-5.867-2.665,2.668-2.131-2.133-4.261,4.8-5.328-4.8,1.067-1.067v-.534l-5.328,5.333-6.395-6.934,4.8-4.266-5.328-5.333,2.131-2.133-4.261-4.266,4.8-4.8,4.261,3.734,1.067-1.067-4.8-4.8,5.328-5.867,4.261,4.266,3.729-3.734,3.2,3.734,3.729-3.734,9.589,10.134v.535ZM419.7,85.517l-2.131-2.133h-.532l2.131,2.668Z" transform="translate(-319.608 -76.45)" fill="#fff"/>
        <path id="Path_31" data-name="Path 31" d="M468.74,92.348,471.4,89.68l2.131,2.668L471.4,94.481Z" transform="translate(-369.714 -86.48)" fill="#20b78d"/>
        <path id="Path_32" data-name="Path 32" d="M435.69,92.348l2.663-2.668,2.665,2.668-2.665,2.668Z" transform="translate(-344.657 -86.48)" fill="#0098d5"/>
        <path id="Path_33" data-name="Path 33" d="M413.66,122.693l2.131-2.133,2.665,2.133-2.665,2.133Z" transform="translate(-327.955 -109.892)" fill="#5a8ac4"/>
        <path id="Path_34" data-name="Path 34" d="M479.75,148.02l2.665-3.2,3.195,3.2-2.663,3.2Z" transform="translate(-378.062 -128.285)" fill="#00b6eb"/>
        <path id="Path_35" data-name="Path 35" d="M422.47,147.485l3.2-2.665,3.2,3.2-3.2,2.668Z" transform="translate(-334.635 -128.285)" fill="#911d74"/>
        <path id="Path_36" data-name="Path 36" d="M440.1,120.951l4.794-4.8,4.8,4.8-4.8,4.8Z" transform="translate(-348.001 -106.549)" fill="#6d2b70"/>
        <path id="Path_37" data-name="Path 37" d="M446.7,160.641l4.8-4.8,4.8,5.335-4.8,4.8Z" transform="translate(-353.005 -136.639)" fill="#a92f86"/>
        <path id="Path_38" data-name="Path 38" d="M424.67,183.834,428.4,180.1l4.261,4.269L428.4,188.1Z" transform="translate(-336.303 -155.032)" fill="#faa94e"/>
        <path id="Path_39" data-name="Path 39" d="M468.74,200.415l2.663-2.665,2.131,2.665-2.131,2.133Z" transform="translate(-369.714 -168.414)" fill="#fcb42e"/>
        <path id="Path_40" data-name="Path 40" d="M479.75,97.148l6.927-7.468,6.927,7.468-6.927,6.934Z" transform="translate(-378.062 -86.48)" fill="#20b461"/>
        <path id="Path_41" data-name="Path 41" d="M512.8,149.086l4.261-4.266,4.264,4.266-4.264,4.266Z" transform="translate(-403.118 -128.285)" fill="#f2674f"/>
        <path id="Path_42" data-name="Path 42" d="M488.56,175.546l4.264-4.266,4.261,4.266-4.261,4.269Z" transform="translate(-384.741 -148.345)" fill="#f0504b"/>
        <path id="Path_43" data-name="Path 43" d="M526.01,192.122l3.732-3.2,3.729,3.734-3.729,3.2Z" transform="translate(-413.134 -161.719)" fill="#f0544b"/>
        <path id="Path_44" data-name="Path 44" d="M530.42,129.306l2.665-2.136,2.131,2.136-2.131,2.133Z" transform="translate(-416.477 -114.903)" fill="#afd57f"/>
        <g id="Group_2" data-name="Group 2" transform="translate(0 16.192)">
          <path id="Path_45" data-name="Path 45" d="M91.79,143.4H59.29v43.647H92.324v-6.919H67.281v-11.71H89.127V161.5H67.281V150.319H91.79Z" transform="translate(-59.29 -143.4)" fill="#495b69"/>
          <path id="Path_46" data-name="Path 46" d="M126.862,143.4h-20.78a7.9,7.9,0,0,0-.532,3.727,6.749,6.749,0,0,0,.532,3.192h20.78Z" transform="translate(-94.362 -143.4)" fill="rgba(242,103,79,0.9)"/>
          <path id="Path_47" data-name="Path 47" d="M74.207,143.4H59.29v19.694c1.6,0,2.665.532,4.261.532,2.131,0,4.261-1.064,6.395-2.128H67.281V150.319h9.057A10.693,10.693,0,0,0,74.207,143.4Z" transform="translate(-59.29 -143.4)" fill="rgba(240,80,75,0.9)"/>
          <path id="Path_48" data-name="Path 48" d="M68.949,208.638v-8.516H90.8c.532-1.064,0-2.128,0-3.192s.532-2.66,0-3.727H68.949V185.22a12.92,12.92,0,0,0,0,23.418Z" transform="translate(-60.958 -175.106)" fill="rgba(252,180,46,0.95)"/>
          <path id="Path_49" data-name="Path 49" d="M59.29,187.42v25.549a14.662,14.662,0,0,0,7.993-4.259v-6.919h3.2v-1.6a18.84,18.84,0,0,0-1.067-5.323H67.283v-3.192A14.669,14.669,0,0,0,59.29,187.42Z" transform="translate(-59.29 -176.774)" fill="rgba(252,180,46,0.85)"/>
          <path id="Path_50" data-name="Path 50" d="M59.29,269.914v12.242H77.939a10.688,10.688,0,0,0-2.131-6.919H67.281v-5.855c-1.067,0-1.6-.532-2.665-.532A18.954,18.954,0,0,0,59.29,269.914Z" transform="translate(-59.29 -238.51)" fill="rgba(169,47,134,0.8)"/>
          <path id="Path_51" data-name="Path 51" d="M147.719,226.072l4.261,4.259-3.729,3.727,3.2,3.727-4.8,4.791,6.927,6.919-6.927,6.919-6.927-6.919-3.2,3.192-6.395-6.919h0l4.261,4.791-5.328,5.323-5.328-5.323,1.067-1.064-.532-1.064-5.86,6.387-7.459-7.451,5.328-5.328-5.86-5.855,2.665-2.66L107.76,228.2l5.328-5.323,4.8,4.791,1.6-2.128-5.328-5.855,5.86-5.855,4.8,5.323,4.261-4.791,4.261,4.259,3.729-4.259,11.188,11.178Zm-19.713-2.131-3.2-3.192-1.067,1.064,3.2,3.192Zm3.729,6.919-4.261,4.259h0l4.261-4.259Z" transform="translate(-96.038 -196.797)" fill="#fff"/>
          <path id="Path_52" data-name="Path 52" d="M184.86,231.361l2.665-2.131,2.663,2.663-2.663,2.128Z" transform="translate(-154.491 -208.472)" fill="#20b78d"/>
          <path id="Path_53" data-name="Path 53" d="M145.21,229.693l3.195-2.663,3.2,3.195-3.2,2.66Z" transform="translate(-124.43 -206.804)" fill="#0098d5"/>
          <path id="Path_54" data-name="Path 54" d="M120.97,264.9l2.131-2.663,2.665,2.663-2.131,2.66Z" transform="translate(-106.053 -233.498)" fill="#5a8ac4"/>
          <path id="Path_55" data-name="Path 55" d="M195.88,294.577l3.729-3.727,3.729,3.727-3.729,3.724Z" transform="translate(-162.846 -255.189)" fill="#00b6eb"/>
          <path id="Path_56" data-name="Path 56" d="M129.78,294.577l3.732-3.727,3.729,3.727-3.729,3.724Z" transform="translate(-112.732 -255.189)" fill="#911d74"/>
          <path id="Path_57" data-name="Path 57" d="M151.81,263.163l5.33-5.323,5.86,5.323-5.86,5.855Z" transform="translate(-129.434 -230.163)" fill="#6d2b70"/>
          <path id="Path_58" data-name="Path 58" d="M158.42,311.583l5.862-5.323,5.328,5.855-5.328,5.323Z" transform="translate(-134.445 -266.872)" fill="#a92f86"/>
          <path id="Path_59" data-name="Path 59" d="M131.99,339.129l4.793-4.259,4.264,4.259-4.264,4.257Z" transform="translate(-114.407 -288.563)" fill="#faa94e"/>
          <path id="Path_60" data-name="Path 60" d="M184.86,357.34l2.665-2.66,2.663,2.66L187.525,360Z" transform="translate(-154.491 -303.582)" fill="#fcb42e"/>
          <path id="Path_61" data-name="Path 61" d="M195.88,237.213l7.991-7.983,8.525,7.983-7.993,8.518Z" transform="translate(-162.846 -208.472)" fill="#20b461"/>
          <path id="Path_62" data-name="Path 62" d="M235.53,295.641l5.328-4.791,4.8,5.323-4.8,4.791Z" transform="translate(-192.906 -255.189)" fill="#f2674f"/>
          <path id="Path_63" data-name="Path 63" d="M206.89,328.659l4.8-4.789,4.8,4.789-4.8,4.791Z" transform="translate(-171.193 -280.223)" fill="#f0504b"/>
          <path id="Path_64" data-name="Path 64" d="M250.95,345.729l4.264-4.259,4.261,4.791-4.261,4.257Z" transform="translate(-204.597 -293.567)" fill="#f0544b"/>
          <path id="Path_65" data-name="Path 65" d="M257.56,273.71l2.665-2.66,2.663,2.66-2.663,2.66Z" transform="translate(-209.608 -240.178)" fill="#afd57f"/>
          <path id="Path_66" data-name="Path 66" d="M59.29,176.952v14.9c.532,0,4.261.532,6.927-1.064a7.586,7.586,0,0,0,2.131-4.259H67.281v-8.516a6.522,6.522,0,0,0-4.8-1.6A6.759,6.759,0,0,0,59.29,176.952Z" transform="translate(-59.29 -168.434)" fill="rgba(250,169,78,0.15)"/>
          <path id="Path_67" data-name="Path 67" d="M59.29,238.58v13.839a5.8,5.8,0,0,0,2.665.532c2.131,0,3.729-1.064,5.328-2.128V240.178c-1.6-1.064-3.729-2.128-5.328-2.128A4,4,0,0,0,59.29,238.58Z" transform="translate(-59.29 -215.159)" fill="rgba(135,59,130,0.9)"/>
        </g>
      </g>
    </g>
  </g>
</svg>
